Anastasia 1997 (Arabic) 720p BDRip AC3 - alrmothe



[color=green]Movies : Animation : HD 720p : Arabic[/color]

[img]http://store1.up-00.com/Jun11/88X08379.jpg[/img]



[img]http://img172.imageshack.us/img172/8907/imdbcast.png[/img]
[color=red]cast[/color]
Meg Ryan  ...  Anastasia (voice)  
John Cusack  ...  Dimitri (voice)  
Kelsey Grammer  ...  Vladimir (voice)  
Christopher Lloyd  ...  Rasputin (voice)  
Hank Azaria  ...  Bartok (voice)  
Bernadette Peters  ...  Sophie (voice)  
Kirsten Dunst  ...  Young Anastasia (voice)  
Angela Lansbury...The Dowager Empress (voice)  
Rick Jones  ...  Czar Nicholas / Servant / Revolutionary Soldier / Ticket Agent (voice)  
Andrea Martin  ...  Phlegmenkoff /(voice)  
Glenn Walker Harris Jr.  ...  Young (voice)  
Debra Mooney  ...  Actress (voice)  
Arthur Malet  ...  Travelling Man /(voice)  
Charity James  ...  Anastasia Impostor (voice)  
Liz Callaway  ...  Anastasia (singing voice)  


[img]http://img219.imageshack.us/img219/462/imdbt.png[/img]
 [color=red]IMDB:[/color] 
http://www.imdb.com/title/tt0118617/ 
[color=navy]IMDb Rating:[/color]6.7/10(19,998) votes)
[color=green]Genre:[/color]Animation | Adventure | Drama 
[color=red]Language:[/color] Arabic



[img]http://img251.imageshack.us/img251/2539/general3y.png[/img]
[color=red]Video Information[/color]
Format : MPEG-4 Visual
Duration : 1h 30mn
Bit rate : 2 586 Kbps
Display aspect ratio : 2.35:1
Frame rate : 25.025 fps
Resolution : 24 bits
Colorimetry : 4:2:0
Scan type : Progressive
Bits/(Pixel*Frame) : 0.148
Stream size : 1.63 GiB (89%)
Writing library : XviD 58 
[color=green]Resolution:1280 x 544[/color]


[color=navy]Audio Information:[/color]
Format : AC-3
Codec ID : 2000
Duration : 1h 30mn
Bit rate mode : Constant
Bit rate : 320 Kbps
Channel(s) : 6 channels
Channel positions : Front: L C R, Surround: L R, LFE
Sampling rate : 44.1 KHz
Stream size : 206 MiB (11%)




[img]http://leetleech.org/images/81234839550700664447.png[/img] 












[img]http://leetleech.org/images/53646261185610707663.png[/img]

